<svg width="500" height="500" viewBox="0 0 500 500" fill="none" xmlns="http://www.w3.org/2000/svg">
<rect x="52" y="30" width="395" height="440" rx="77" fill="#C0C6F4" stroke="black" stroke-width="10"/>
<path d="M182.943 140.818H209.364V296.784C209.364 310.705 206.807 322.53 201.693 332.26C196.58 341.99 189.371 349.376 180.067 354.419C170.763 359.462 159.79 361.983 147.148 361.983C135.216 361.983 124.598 359.817 115.294 355.484C105.99 351.081 98.6747 344.831 93.348 336.734C88.0213 328.638 85.358 319.014 85.358 307.864H111.352C111.352 314.043 112.879 319.44 115.933 324.057C119.058 328.602 123.32 332.153 128.717 334.71C134.115 337.267 140.259 338.545 147.148 338.545C154.747 338.545 161.21 336.947 166.537 333.751C171.864 330.555 175.912 325.868 178.682 319.689C181.523 313.439 182.943 305.804 182.943 296.784V140.818ZM262.311 359V140.818H336.033C353.149 140.818 367.141 143.908 378.007 150.087C388.945 156.195 397.041 164.469 402.297 174.909C407.553 185.349 410.18 196.997 410.18 209.852C410.18 222.707 407.553 234.391 402.297 244.902C397.112 255.413 389.087 263.794 378.22 270.044C367.354 276.223 353.433 279.312 336.459 279.312H283.618V255.875H335.607C347.325 255.875 356.736 253.851 363.838 249.803C370.94 245.754 376.089 240.286 379.286 233.396C382.553 226.436 384.186 218.588 384.186 209.852C384.186 201.116 382.553 193.304 379.286 186.415C376.089 179.526 370.905 174.128 363.732 170.222C356.558 166.244 347.041 164.256 335.18 164.256H288.732V359H262.311Z" fill="black"/>
</svg>
